<?xml version="1.0" encoding="UTF-8"?>
<svg width="24px" height="24px" viewBox="0 0 24 24" version="1.1" xmlns="http://www.w3.org/2000/svg" xmlns:xlink="http://www.w3.org/1999/xlink">
    <!-- Generator: Sketch 63.1 (92452) - https://sketch.com -->
    <title>mys</title>
    <desc>Created with Sketch.</desc>
    <g id="mys" stroke="none" stroke-width="1" fill="none" fill-rule="evenodd">
        <g id="Group" transform="translate(-0.005000, -0.005000)" fill-rule="nonzero">
            <circle id="Oval" fill="#F0F0F0" cx="12.005" cy="12.005" r="12.005"></circle>
            <g transform="translate(0.375156, 2.579199)" fill="#D80027" id="Path">
                <path d="M11.1079076,9.42580078 L23.6348438,9.42580078 C23.6348438,8.34220885 23.4904086,7.29261545 23.2212809,6.2940433 L11.1079076,6.2940433 L11.1079076,9.42580078 Z"></path>
                <path d="M11.1079076,3.16233271 L21.8728286,3.16233271 C21.1379444,1.96314576 20.1984125,0.903188672 19.1028156,0.0305752344 L11.1079076,0.0305752344 L11.1079076,3.16233271 Z"></path>
                <path d="M11.6298437,21.4308008 C14.4551924,21.4308008 17.0520708,20.4542691 19.1028156,18.8210263 L4.15687193,18.8210263 C6.20761668,20.4542691 8.80449514,21.4308008 11.6298437,21.4308008 Z"></path>
                <path d="M1.38685887,15.6892688 L21.8728286,15.6892688 C22.4628087,14.7266179 22.9203118,13.6742577 23.2212809,12.5575114 L0.0384066211,12.5575114 C0.339328828,13.6742577 0.79687877,14.7266179 1.38685887,15.6892688 Z"></path>
            </g>
            <path d="M12.005,12.005 C12.005,5.37486359 12.005,4.59322555 12.005,0 C5.37486359,0 0,5.37486359 0,12.005 L12.005,12.005 Z" id="Path" fill="#0052B4"></path>
            <g transform="translate(3.141934, 3.610879)" fill="#FFDA44" id="Path">
                <path d="M4.84111004,6.66511973 C3.20158344,6.66511973 1.87249863,5.33598803 1.87249863,3.69650832 C1.87249863,2.05702861 3.20163033,0.727896914 4.84111004,0.727896914 C5.35230732,0.727896914 5.83330453,0.857185137 6.25324506,1.0847174 C5.59447068,0.440527227 4.69353295,0.0428616016 3.69932199,0.0428616016 C1.68149721,0.0428616016 0.0456283789,1.67868354 0.0456283789,3.69655521 C0.0456283789,5.71442689 1.68149721,7.35024883 3.69932199,7.35024883 C4.69353295,7.35024883 5.59447068,6.9525832 6.25324506,6.30839303 C5.83330453,6.5358315 5.35235422,6.66511973 4.84111004,6.66511973 Z"></path>
                <polygon points="5.67766158 1.60867 6.20470922 2.71078527 7.39493932 2.43579574 6.86193607 3.53495666 7.81914725 4.29403844 6.62736963 4.56269721 6.63069914 5.78434664 5.67766158 5.02005957 4.72457713 5.78434664 4.72785975 4.56269721 3.53608213 4.29403844 4.4932933 3.53495666 3.96024316 2.43579574 5.15056705 2.71078527"></polygon>
            </g>
        </g>
    </g>
</svg>